<svg width="32" height="32" viewBox="0 0 32 32" fill="none" xmlns="http://www.w3.org/2000/svg">
<path d="M16 3C8.832 3 3 8.832 3 16C3 23.168 8.832 29 16 29C23.168 29 29 23.168 29 16C29 8.832 23.168 3 16 3ZM16 5C22.087 5 27 9.913 27 16C27 22.087 22.087 27 16 27C9.913 27 5 22.087 5 16C5 9.913 9.913 5 16 5ZM16 9C15.4477 9 15 9.44772 15 10V14C15 14.5523 14.5523 15 14 15H10C9.44772 15 9 15.4477 9 16C9 16.5523 9.44772 17 10 17H14C14.5523 17 15 17.4477 15 18V22C15 22.5523 15.4477 23 16 23C16.5523 23 17 22.5523 17 22V18C17 17.4477 17.4477 17 18 17H22C22.5523 17 23 16.5523 23 16C23 15.4477 22.5523 15 22 15H18C17.4477 15 17 14.5523 17 14V10C17 9.44772 16.5523 9 16 9Z" fill="black"/>
</svg>
