<svg width="24" height="24" viewBox="0 0 24 24" fill="none" xmlns="http://www.w3.org/2000/svg">
<path d="M19 16.25H5.00002C4.85222 16.251 4.70751 16.2077 4.58453 16.1257C4.46155 16.0438 4.36594 15.9268 4.31002 15.79C4.25872 15.6568 4.24653 15.5116 4.27487 15.3717C4.30322 15.2317 4.37092 15.1028 4.47002 15L11.47 8.00001C11.6106 7.85956 11.8013 7.78067 12 7.78067C12.1988 7.78067 12.3894 7.85956 12.53 8.00001L19.53 15C19.635 15.1054 19.7063 15.2397 19.7348 15.3857C19.7633 15.5317 19.7477 15.6829 19.69 15.82C19.6295 15.9512 19.532 16.0618 19.4094 16.1383C19.2867 16.2147 19.1445 16.2535 19 16.25ZM6.81002 14.75H17.19L12 9.56001L6.81002 14.75Z" fill="black"/>
</svg>
