<svg width="24" height="24" viewBox="0 0 24 24" fill="none" xmlns="http://www.w3.org/2000/svg">
<path d="M11.47 16.03C11.6106 16.1704 11.8012 16.2493 12 16.2493C12.1987 16.2493 12.3894 16.1704 12.53 16.03L19.53 9.02999C19.6347 8.9251 19.7061 8.79153 19.735 8.64613C19.7638 8.50073 19.749 8.35003 19.6923 8.21307C19.6356 8.0761 19.5395 7.95902 19.4163 7.8766C19.2931 7.79418 19.1482 7.75012 19 7.74999L4.99999 7.74999C4.85175 7.75012 4.70687 7.79418 4.58366 7.8766C4.46044 7.95902 4.36441 8.0761 4.3077 8.21307C4.25099 8.35003 4.23614 8.50073 4.26502 8.64613C4.29391 8.79152 4.36523 8.9251 4.46999 9.02999L11.47 16.03Z" fill="black"/>
</svg>
