<svg width="24" height="24" viewBox="0 0 24 24" fill="none" xmlns="http://www.w3.org/2000/svg">
<path d="M12.53 7.97001C12.3894 7.82956 12.1988 7.75067 12 7.75067C11.8013 7.75067 11.6106 7.82956 11.47 7.97001L4.47001 14.97C4.36526 15.0749 4.29393 15.2085 4.26505 15.3539C4.23616 15.4993 4.25101 15.65 4.30773 15.7869C4.36444 15.9239 4.46046 16.041 4.58368 16.1234C4.7069 16.2058 4.85177 16.2499 5.00001 16.25H19C19.1483 16.2499 19.2931 16.2058 19.4163 16.1234C19.5396 16.041 19.6356 15.9239 19.6923 15.7869C19.749 15.65 19.7639 15.4993 19.735 15.3539C19.7061 15.2085 19.6348 15.0749 19.53 14.97L12.53 7.97001Z" fill="black"/>
</svg>
